# xmcd CD database file
#
# Track frame offsets:
#	150
#	22495
#	45967
#	72737
#	103700
#	128356
#	152605
#	176630
#	198237
#	224405
#	268427
#
# Disc length: 3932 seconds
#
# Revision: 0
# Processed by: cddbd v1.5.2PL0 Copyright (c) Steve Scherf et al.
# Submitted via: CDex 1.70beta3
#
DISCID=a40f5a0b
DTITLE=Chiko Honda - Live at Lovely - Ballad Night
DYEAR=2014
DGENRE=Jazz
TTITLE0=Embraceable You
TTITLE1=Travellin' Light
TTITLE2=Wild is the Wind
TTITLE3=And I Love Her
TTITLE4=YOu are so Beautiful
TTITLE5=But Beautiful
TTITLE6=You've Changed
TTITLE7=Imagine
TTITLE8=それはスポットライトではない
TTITLE9=God Bless the Child
TTITLE10=What's Going on
EXTD=YEAR: 2014
EXTT0=
EXTT1=
EXTT2=
EXTT3=
EXTT4=
EXTT5=
EXTT6=
EXTT7=
EXTT8=
EXTT9=
EXTT10=
PLAYORDER=
